<svg xmlns="http://www.w3.org/2000/svg" version="1.1" xmlns:xlink="http://www.w3.org/1999/xlink" xmlns:svgjs="http://svgjs.dev/svgjs" width="2000" height="540" viewBox="0 0 2000 540"><g transform="matrix(1,0,0,1,-1.2121212121210192,-0.4400684561711614)"><svg viewBox="0 0 396 107" data-background-color="#e8e7d5" preserveAspectRatio="xMidYMid meet" height="540" width="2000" xmlns="http://www.w3.org/2000/svg" xmlns:xlink="http://www.w3.org/1999/xlink"><g id="tight-bounds" transform="matrix(1,0,0,1,0.23999999999995225,0.08719874964873497)"><svg viewBox="0 0 395.52 106.82560250070253" height="106.82560250070253" width="395.52"><g><svg viewBox="0 0 567.2980828329883 153.22097364514417" height="106.82560250070253" width="395.52"><g transform="matrix(1,0,0,1,171.7780828329883,10.617027703135037)"><svg viewBox="0 0 395.52 131.9869182388741" height="131.9869182388741" width="395.52"><g id="textblocktransform"><svg viewBox="0 0 395.52 131.9869182388741" height="131.9869182388741" width="395.52" id="textblock"><g><svg viewBox="0 0 395.52 92.74528578407424" height="92.74528578407424" width="395.52"><g transform="matrix(1,0,0,1,0,0)"><svg width="395.52" viewBox="0.25 -35.9 204.68 48" height="92.74528578407424" data-palette-color="#37623d"><path d="M0.25-34.55L5-34.55 14.7-4.75 14.95-4.75 24.75-34.55 29-34.55 17.7 0 11.7 0 0.25-34.55ZM45.35-13.65L45.35-13.65 45.35-15.85Q45.35-19.9 41.15-19.9L41.15-19.9Q37.85-19.9 34.25-17.75L34.25-17.75 32.8-20.75Q37-23.4 41.85-23.4L41.85-23.4Q45.25-23.4 47.42-21.68 49.6-19.95 49.6-16.35L49.6-16.35 49.6 0 46.9 0 45.65-3Q44.05-1.35 41.85-0.38 39.65 0.6 37.85 0.6L37.85 0.6Q34.75 0.6 32.9-1.1 31.05-2.8 31.05-5.55L31.05-5.55Q31.05-13.65 45.35-13.65ZM37.05-8.8Q36.1-7.95 35.77-7.28 35.45-6.6 35.45-5.53 35.45-4.45 36.37-3.68 37.3-2.9 38.8-2.9L38.8-2.9Q41.95-2.9 45.35-5.7L45.35-5.7 45.35-10.7Q39.05-10.6 37.05-8.8L37.05-8.8ZM64.05-6.45L64.05-6.45Q62.9-6.45 61.85-6.6L61.85-6.6Q60.6-4.2 60.6-3.45L60.6-3.45Q60.6-3.1 61.5-2.85L61.5-2.85 67.59-1.5Q71.84-0.55 73.65 0.73 75.45 2 75.45 4.5 75.45 7 73.7 8.7L73.7 8.7Q70.3 12.1 63.7 12.1L63.7 12.1Q59.65 12.1 56.7 10.6 53.75 9.1 53.75 6.3 53.75 3.5 57.75-0.15L57.75-0.15Q56.25-0.7 56.25-1.8 56.25-2.9 59.2-7.25L59.2-7.25Q54.9-9.1 54.9-15L54.9-15Q54.9-18.3 57.22-20.78 59.55-23.25 64.05-23.25L64.05-23.25Q66.65-23.25 68.59-22.5L68.59-22.5 75.59-23.3 75.59-19.95 71.84-19.95Q73.15-17.85 73.15-14.63 73.15-11.4 70.84-8.93 68.55-6.45 64.05-6.45ZM69.15-14.25L69.15-14.25Q69.15-20.45 64.09-20.45L64.09-20.45Q62.1-20.45 60.85-19.4L60.85-19.4Q58.9-17.7 58.9-15.18 58.9-12.65 60.1-10.95 61.3-9.25 63.95-9.25 66.59-9.25 67.87-10.88 69.15-12.5 69.15-14.25ZM57.75 5.65L57.75 5.65Q57.75 7.25 59.5 8.1 61.25 8.95 64.05 8.95 66.84 8.95 69.25 7.83 71.65 6.7 71.65 4.75L71.65 4.75Q71.65 3.75 70.5 3.13 69.34 2.5 66.5 1.9L66.5 1.9 60.65 0.6Q57.75 3.5 57.75 5.65ZM92.54-13.65L92.54-13.65 92.54-15.85Q92.54-19.9 88.34-19.9L88.34-19.9Q85.04-19.9 81.44-17.75L81.44-17.75 79.99-20.75Q84.19-23.4 89.04-23.4L89.04-23.4Q92.44-23.4 94.62-21.68 96.79-19.95 96.79-16.35L96.79-16.35 96.79 0 94.09 0 92.84-3Q91.24-1.35 89.04-0.38 86.84 0.6 85.04 0.6L85.04 0.6Q81.94 0.6 80.09-1.1 78.24-2.8 78.24-5.55L78.24-5.55Q78.24-13.65 92.54-13.65ZM84.24-8.8Q83.29-7.95 82.97-7.28 82.64-6.6 82.64-5.53 82.64-4.45 83.57-3.68 84.49-2.9 85.99-2.9L85.99-2.9Q89.14-2.9 92.54-5.7L92.54-5.7 92.54-10.7Q86.24-10.6 84.24-8.8L84.24-8.8ZM113.04-13.35L113.04-13.35 108.24-13.35 108.24 0 103.94 0 103.94-34.55 113.04-34.55Q118.34-34.55 121.59-31.75 124.84-28.95 124.84-23.95 124.84-18.95 121.59-16.15 118.34-13.35 113.04-13.35ZM108.24-30.75L108.24-17.15 113.04-17.15Q120.24-17.15 120.24-23.95 120.24-30.75 113.04-30.75L113.04-30.75 108.24-30.75ZM129.74-22.8L133.99-22.8 133.99-5.85Q133.99-4.45 135.01-3.68 136.04-2.9 137.69-2.9L137.69-2.9Q141.24-2.9 144.99-5.7L144.99-5.7 144.99-22.8 149.24-22.8 149.24 0 146.54 0 145.29-3Q141.44 0.6 136.74 0.6L136.74 0.6Q133.74 0.6 131.74-1 129.74-2.6 129.74-5.65L129.74-5.65 129.74-22.8ZM156.24 0L156.24-35.9 160.34-35.9 160.34 0 156.24 0ZM180.28-21.9L179.03-18.8Q176.48-19.9 174.23-19.9L174.23-19.9Q169.88-19.9 169.88-17.25L169.88-17.25Q169.88-14.95 175.68-12.8L175.68-12.8Q177.83-12 179.66-10.3 181.48-8.6 181.48-6.2L181.48-6.2Q181.48-2.75 179.23-1.07 176.98 0.6 172.98 0.6 168.98 0.6 165.18-1.6L165.18-1.6 166.43-4.7Q169.58-2.9 173.58-2.9L173.58-2.9Q175.28-2.9 176.33-3.63 177.38-4.35 177.38-5.6 177.38-6.85 176.18-7.75 174.98-8.65 173.28-9.35 171.58-10.05 169.88-10.88 168.18-11.7 166.98-13.2 165.78-14.7 165.78-16.75L165.78-16.75Q165.78-19.95 167.96-21.68 170.13-23.4 173.48-23.4 176.83-23.4 180.28-21.9L180.28-21.9ZM195.68-2.9L195.68-2.9Q199.28-2.9 202.88-5.05L202.88-5.05 204.33-2.05Q200.13 0.6 195.36 0.6 190.58 0.6 187.78-2.43 184.98-5.45 184.98-11.15 184.98-16.85 187.88-20.13 190.78-23.4 195.58-23.4L195.58-23.4Q199.93-23.4 202.43-20.7L202.43-20.7Q203.48-19.6 204.21-17.5 204.93-15.4 204.93-12.55L204.93-12.55 203.38-10.8 189.23-10.8Q189.38-2.9 195.68-2.9ZM200.73-13.95Q200.73-16.75 199.28-18.45 197.83-20.15 195.46-20.15 193.08-20.15 191.43-18.48 189.78-16.8 189.43-13.95L189.43-13.95 200.73-13.95Z" opacity="1" transform="matrix(1,0,0,1,0,0)" fill="#37623d" class="wordmark-text-0" data-fill-palette-color="primary" id="text-0"></path></svg></g></svg></g><g transform="matrix(1,0,0,1,0,114.64022187083535)"><svg viewBox="0 0 330.65472 17.34669636803874" height="17.34669636803874" width="330.65472"><g transform="matrix(1,0,0,1,0,0)"><svg width="330.65472" viewBox="3.75 -35.15 681.39 35.75" height="17.34669636803874" data-palette-color="#37623d"><path d="M25 0L3.75 0 3.75-34.55 24.05-34.55 23.1-30.75 8.05-30.75 8.05-19.35 22.25-19.35 22.25-15.7 8.05-15.7 8.05-3.8 25-3.8 25 0ZM27-34.55L31.75-34.55 41.45-4.75 41.7-4.75 51.5-34.55 55.75-34.55 44.45 0 38.45 0 27-34.55ZM73.75 0.6L73.75 0.6Q70 0.6 67.02-0.8 64.05-2.2 62.2-4.55L62.2-4.55Q58.5-9.35 58.5-16.05L58.5-16.05Q58.5-24.45 63.35-29.8 68.2-35.15 76.2-35.15L76.2-35.15Q79.95-35.15 82.92-33.75 85.9-32.35 87.7-30L87.7-30Q91.45-25.2 91.45-18.5L91.45-18.5Q91.45-10.1 86.59-4.75 81.75 0.6 73.75 0.6ZM76-31.4L76-31.4Q69.8-31.4 66.45-27.35 63.1-23.3 63.1-16L63.1-16Q63.1-10.65 65.97-6.85 68.84-3.05 74-3.05L74-3.05Q80.2-3.05 83.52-7.1 86.84-11.15 86.84-18.45L86.84-18.45Q86.84-23.8 84-27.6 81.15-31.4 76-31.4ZM101.99-14.7L101.99 0 97.69 0 97.69-34.55 101.99-34.55 101.99-19.95 115.64-34.55 120.99-34.55 107.39-20.35 122.24 0 116.74 0 104.29-17.1 101.99-14.7ZM147.49 0L126.24 0 126.24-34.55 146.54-34.55 145.59-30.75 130.54-30.75 130.54-19.35 144.74-19.35 144.74-15.7 130.54-15.7 130.54-3.8 147.49-3.8 147.49 0ZM193.39 0L188.64 0 184.69-11.25 171.64-11.25 167.69 0 163.24 0 175.74-34.55 180.89-34.55 193.39 0ZM172.94-14.9L183.44-14.9 179.09-27.35 178.29-30.15 178.09-30.15 177.29-27.35 172.94-14.9ZM222.13-7.75L222.38-7.75 222.38-34.55 226.68-34.55 226.68 0 222.53 0 202.18-26.85 201.93-26.85 201.93 0 197.63 0 197.63-34.55 201.78-34.55 222.13-7.75ZM268.93 0L247.68 0 247.68-34.55 267.98-34.55 267.03-30.75 251.98-30.75 251.98-19.35 266.18-19.35 266.18-15.7 251.98-15.7 251.98-3.8 268.93-3.8 268.93 0ZM298.93-7.75L299.18-7.75 299.18-34.55 303.48-34.55 303.48 0 299.32 0 278.98-26.85 278.73-26.85 278.73 0 274.43 0 274.43-34.55 278.57-34.55 298.93-7.75ZM332.22 0L310.97 0 310.97-34.55 331.27-34.55 330.32-30.75 315.27-30.75 315.27-19.35 329.47-19.35 329.47-15.7 315.27-15.7 315.27-3.8 332.22-3.8 332.22 0ZM347.42-14.05L342.02-14.05 342.02 0 337.72 0 337.72-34.55 346.82-34.55Q351.92-34.55 355.27-31.83 358.62-29.1 358.62-24.25L358.62-24.25Q358.62-20.75 356.77-18.32 354.92-15.9 351.77-14.8L351.77-14.8Q354.37-11.8 361.42 0L361.42 0 356.22 0Q349.27-12 347.42-14.05L347.42-14.05ZM342.02-30.75L342.02-17.75 346.82-17.75Q350.27-17.75 352.15-19.45 354.02-21.15 354.02-24.25 354.02-27.35 352.15-29.05 350.27-30.75 346.82-30.75L346.82-30.75 342.02-30.75ZM381.87-31.35L381.87-31.35Q375.77-31.35 372.32-27.25 368.87-23.15 368.87-16.05L368.87-16.05Q368.87-10.3 371.89-6.7 374.92-3.1 379.64-3.1 384.37-3.1 388.42-4.9L388.42-4.9 388.42-13.8 381.02-13.8 381.02-17.45 392.67-17.45 392.67-2.75Q386.12 0.6 379.32 0.6L379.32 0.6Q374.37 0.6 370.79-1.83 367.22-4.25 365.57-7.95 363.92-11.65 363.92-16.05L363.92-16.05Q363.92-24.45 368.82-29.8 373.72-35.15 381.87-35.15L381.87-35.15Q385.87-35.15 390.77-33.55L390.77-33.55 389.52-30.05Q385.47-31.35 381.87-31.35ZM420.17 0L398.92 0 398.92-34.55 419.22-34.55 418.27-30.75 403.22-30.75 403.22-19.35 417.42-19.35 417.42-15.7 403.22-15.7 403.22-3.8 420.17-3.8 420.17 0ZM432.06-30.75L422.16-30.75 422.16-34.55 446.26-34.55 446.26-30.75 436.36-30.75 436.36 0 432.06 0 432.06-30.75ZM455.06 0L450.76 0 450.76-34.55 455.06-34.55 455.06 0ZM466.76-16.05L466.76-16.05Q466.76-10.3 469.78-6.7 472.81-3.1 477.98-3.1 483.16-3.1 488.11-5.65L488.11-5.65 488.66-1.85Q483.06 0.6 477.66 0.6 472.26 0.6 468.68-1.83 465.11-4.25 463.46-7.95 461.81-11.65 461.81-16.05L461.81-16.05Q461.81-24.45 466.71-29.8 471.61-35.15 479.76-35.15L479.76-35.15Q483.51-35.15 487.86-33.8L487.86-33.8 486.66-30.3Q483.21-31.35 479.76-31.35L479.76-31.35Q473.66-31.35 470.21-27.25 466.76-23.15 466.76-16.05ZM511.45 0L507.15 0 507.15-34.55 526.6-34.55 525.65-30.75 511.45-30.75 511.45-19.35 524.8-19.35 524.8-15.7 511.45-15.7 511.45 0ZM553.1 0L531.85 0 531.85-34.55 552.15-34.55 551.2-30.75 536.15-30.75 536.15-19.35 550.35-19.35 550.35-15.7 536.15-15.7 536.15-3.8 553.1-3.8 553.1 0ZM579.85 0L558.6 0 558.6-34.55 578.9-34.55 577.95-30.75 562.9-30.75 562.9-19.35 577.1-19.35 577.1-15.7 562.9-15.7 562.9-3.8 579.85-3.8 579.85 0ZM604.29 0L585.34 0 585.34-34.55 589.64-34.55 589.64-3.8 604.29-3.8 604.29 0ZM613.09 0L608.79 0 608.79-34.55 613.09-34.55 613.09 0ZM645.59-7.75L645.84-7.75 645.84-34.55 650.14-34.55 650.14 0 645.99 0 625.64-26.85 625.39-26.85 625.39 0 621.09 0 621.09-34.55 625.24-34.55 645.59-7.75ZM674.34-31.35L674.34-31.35Q668.24-31.35 664.79-27.25 661.34-23.15 661.34-16.05L661.34-16.05Q661.34-10.3 664.36-6.7 667.39-3.1 672.11-3.1 676.84-3.1 680.89-4.9L680.89-4.9 680.89-13.8 673.49-13.8 673.49-17.45 685.14-17.45 685.14-2.75Q678.59 0.6 671.79 0.6L671.79 0.6Q666.84 0.6 663.26-1.83 659.69-4.25 658.04-7.95 656.39-11.65 656.39-16.05L656.39-16.05Q656.39-24.45 661.29-29.8 666.19-35.15 674.34-35.15L674.34-35.15Q678.34-35.15 683.24-33.55L683.24-33.55 681.99-30.05Q677.94-31.35 674.34-31.35Z" opacity="1" transform="matrix(1,0,0,1,0,0)" fill="#37623d" class="slogan-text-1" data-fill-palette-color="secondary" id="text-1"></path></svg></g></svg></g></svg></g></svg></g><g><svg viewBox="0 0 149.8831467462272 153.22097364514417" height="153.22097364514417" width="149.8831467462272"><g><svg xmlns="http://www.w3.org/2000/svg" xmlns:xlink="http://www.w3.org/1999/xlink" version="1.1" x="0" y="0" viewBox="31.455 26.455 449.0890000417782 459.09000000000003" style="enable-background:new 0 0 512 512;" xml:space="preserve" height="153.22097364514417" width="149.8831467462272" class="icon-icon-0" data-fill-palette-color="accent" id="icon-0"><g fill="#37623d" data-fill-palette-color="accent"><g fill="#37623d" data-fill-palette-color="accent"><g fill="#37623d" data-fill-palette-color="accent"><g fill="#37623d" data-fill-palette-color="accent"><g fill="#37623d" data-fill-palette-color="accent"><path d="M354.971 485.545H157.03C132.236 485.545 112.815 470.516 112.815 451.33 112.815 447.055 113.823 442.865 115.811 438.879 118.277 433.938 124.283 431.928 129.223 434.395 134.165 436.86 136.173 442.865 133.708 447.807 133.106 449.012 132.814 450.164 132.814 451.33 132.814 458.053 142.758 465.545 157.029 465.545H354.969C369.239 465.545 379.183 458.054 379.183 451.33 379.183 451.153 379.176 450.976 379.162 450.799A10 10 0 0 1 379.249 448.5 10 10 0 0 1 377.559 446.551L326.479 369.637H185.52L160.614 407.14C157.558 411.741 151.351 412.993 146.752 409.938 142.151 406.883 140.898 400.676 143.953 396.076L171.963 353.899A10 10 0 0 1 181.296 349.482C182.328 349.586 183.302 349.637 184.27 349.637H327.733C328.701 349.637 329.673 349.586 330.707 349.482A10.01 10.01 0 0 1 340.04 353.899L394.223 435.487A9.97 9.97 0 0 1 395.775 442.555 9.97 9.97 0 0 1 399.108 449.271C399.161 449.956 399.187 450.648 399.187 451.331 399.185 470.516 379.764 485.545 354.971 485.545" fill="#37623d" data-fill-palette-color="accent"></path></g><g fill="#37623d" data-fill-palette-color="accent"><path d="M327.731 369.637H243.775C238.253 369.637 233.775 365.159 233.775 359.637S238.253 349.637 243.775 349.637H327.731C328.699 349.637 329.671 349.586 330.705 349.482 338.464 348.702 342.354 345.116 342.529 343.879 342.522 343.879 342.459 343.621 342.105 343.145L299.781 285.989C297.945 283.51 292.418 281.001 285.406 281.001H226.593C219.581 281.001 214.055 283.511 212.219 285.989L169.894 343.145C169.518 343.653 169.47 343.913 169.47 343.915 169.638 345.109 173.529 348.7 181.293 349.482 182.327 349.586 183.3 349.637 184.268 349.637H193.775C199.298 349.637 203.775 354.114 203.775 359.637S199.298 369.637 193.775 369.637H184.268A50 50 0 0 1 179.289 369.381C162.012 367.641 149.472 356.922 149.472 343.893 149.472 339.461 150.976 335.086 153.822 331.244L196.147 274.087C202.124 266.014 213.79 261 226.594 261H285.407C298.211 261 309.877 266.014 315.854 274.087L358.179 331.242C361.026 335.086 362.53 339.461 362.53 343.893 362.53 356.921 349.989 367.641 332.711 369.38A50 50 0 0 1 327.731 369.637" fill="#37623d" data-fill-palette-color="accent"></path></g><g fill="#37623d" data-fill-palette-color="accent"><path d="M256 281C226.049 281 201.682 255.104 201.682 223.273S226.049 165.545 256 165.545 310.318 191.441 310.318 223.273C310.318 255.104 285.951 281 256 281M256 185.545C237.077 185.545 221.682 202.469 221.682 223.273 221.682 244.076 237.077 261 256 261S290.318 244.076 290.318 223.273 274.923 185.545 256 185.545" fill="#37623d" data-fill-palette-color="accent"></path></g><g fill="#37623d" data-fill-palette-color="accent"><path d="M256 485.545H177.591C172.069 485.545 167.591 481.068 167.591 475.545S172.069 465.545 177.591 465.545H256C263.645 465.545 269.863 459.326 269.863 451.682S263.644 437.819 256 437.819H177.591C172.069 437.819 167.591 433.341 167.591 427.819S172.069 417.819 177.591 417.819H256C274.672 417.819 289.863 433.01 289.863 451.682S274.672 485.545 256 485.545" fill="#37623d" data-fill-palette-color="accent"></path></g><g fill="#37623d" data-fill-palette-color="accent"><path d="M234.268 342.363H198.046C192.523 342.363 188.046 337.886 188.046 332.363S192.523 322.363 198.046 322.363H229.449L248.179 298.859C251.621 294.539 257.912 293.83 262.232 297.27 266.55 300.712 267.262 307.003 263.82 311.323L242.088 338.595A10 10 0 0 1 234.268 342.363" fill="#37623d" data-fill-palette-color="accent"></path></g><g fill="#37623d" data-fill-palette-color="accent"><path d="M277.917 342.406A10 10 0 0 1 270.137 338.689L248.22 311.547C244.75 307.25 245.421 300.954 249.718 297.484 254.016 294.015 260.311 294.686 263.781 298.982L282.691 322.4 313.943 322.363H313.955C319.473 322.363 323.948 326.833 323.955 332.351 323.962 337.874 319.49 342.357 313.967 342.363L277.93 342.406z" fill="#37623d" data-fill-palette-color="accent"></path></g></g><g fill="#37623d" data-fill-palette-color="accent"><path d="M107.185 415.545A9.97 9.97 0 0 1 100.248 412.747C78.728 392.019 61.807 367.674 49.952 340.385 37.679 312.127 31.455 282.054 31.455 251 31.455 205.978 44.732 162.541 69.851 125.386 72.944 120.81 79.162 119.608 83.736 122.702 88.312 125.795 89.513 132.012 86.42 136.587 63.546 170.421 51.455 209.985 51.455 251 51.455 307.092 73.711 359.419 114.122 398.342 118.101 402.174 118.219 408.504 114.388 412.482A9.97 9.97 0 0 1 107.185 415.545M418.2 401.432A9.97 9.97 0 0 1 411.655 398.991C407.481 395.374 407.03 389.057 410.646 384.884 442.824 347.751 460.544 300.204 460.544 251.001 460.545 203.975 444.195 158.058 414.506 121.707 411.013 117.43 411.648 111.13 415.925 107.636S426.502 104.778 429.996 109.055C462.594 148.967 480.545 199.377 480.544 251 480.544 305.014 461.088 357.212 425.761 397.981A9.97 9.97 0 0 1 418.2 401.432M110.67 103.175A9.97 9.97 0 0 1 103.313 99.951C99.571 95.889 99.831 89.563 103.892 85.821 145.443 47.538 199.464 26.455 256 26.455 305.858 26.455 353.07 42.454 392.534 72.72 396.916 76.081 397.744 82.359 394.383 86.741S384.745 91.951 380.362 88.59C344.422 61.025 301.418 46.455 256 46.455 204.499 46.455 155.292 65.659 117.443 100.53A9.97 9.97 0 0 1 110.67 103.175" fill="#37623d" data-fill-palette-color="accent"></path></g><g fill="#37623d" data-fill-palette-color="accent"><path d="M390.662 485.545H90.662C85.14 485.545 80.662 481.068 80.662 475.545S85.14 465.545 90.662 465.545H390.662C396.184 465.545 400.662 470.023 400.662 475.545S396.185 485.545 390.662 485.545" fill="#37623d" data-fill-palette-color="accent"></path></g><g fill="#37623d" data-fill-palette-color="accent"><path d="M256 155.545C250.478 155.545 246 151.068 246 145.545V95.545C246 90.022 250.478 85.545 256 85.545S266 90.022 266 95.545V145.545C266 151.068 261.522 155.545 256 155.545" fill="#37623d" data-fill-palette-color="accent"></path></g></g></g></g></svg></g></svg></g></svg></g><defs></defs></svg><rect width="395.52" height="106.82560250070253" fill="none" stroke="none" visibility="hidden"></rect></g></svg></g></svg>